<svg xmlns="http://www.w3.org/2000/svg" width="500mm" height="100mm" viewBox="0 0 1417.32 283.46"><defs><style>.cls-1{fill:#000;}</style></defs><path class="cls-1" d="M0,0V283.46H1417.32V0ZM566.93,277.8H5.67V5.67H566.93Zm566.93,0H572.6V5.67h561.26Zm277.79,0H1139.53V5.67h272.12Z"/><path class="cls-1" d="M1052.48,96v62.44c0,.81-.54,1.08-1,.27L1015.9,95.47a2.38,2.38,0,0,0-2-1.08H998.63A1.56,1.56,0,0,0,997,96v91.16a1.56,1.56,0,0,0,1.62,1.62h13.22a1.56,1.56,0,0,0,1.62-1.62v-62.3c0-.81.54-1.08.95-.27l35.63,63.11a2.38,2.38,0,0,0,2,1.08h15.25a1.57,1.57,0,0,0,1.63-1.62V96a1.57,1.57,0,0,0-1.63-1.62H1054.1a1.56,1.56,0,0,0-1.62,1.62m-95.36,92.78h13.36a1.56,1.56,0,0,0,1.62-1.62V96a1.56,1.56,0,0,0-1.62-1.62H957.12A1.57,1.57,0,0,0,955.5,96v91.16a1.57,1.57,0,0,0,1.62,1.62m-53.28-16.45V96a1.57,1.57,0,0,0-1.62-1.62H888.86A1.56,1.56,0,0,0,887.24,96v91.16a1.56,1.56,0,0,0,1.62,1.62h46a1.56,1.56,0,0,0,1.62-1.62V174.76a1.56,1.56,0,0,0-1.62-1.62H904.65a.77.77,0,0,1-.81-.8M816.54,110h12.29c10.93,0,19.7,5.8,19.7,17.8s-8.77,17.8-19.84,17.8H816.54a.77.77,0,0,1-.8-.81v-34a.71.71,0,0,1,.8-.8m31.32,78.75h17c1.35,0,1.75-.95.95-2l-20.25-27.37a.78.78,0,0,1,.27-1.21c12-4.86,20-15.51,20-30.34,0-21-15.93-33.45-36.18-33.45H800.75A1.57,1.57,0,0,0,799.13,96v91.16a1.57,1.57,0,0,0,1.62,1.62h13.36a1.57,1.57,0,0,0,1.63-1.62V162.09a.77.77,0,0,1,.8-.81H826.8a1.66,1.66,0,0,1,1.08.54L846,187.71a2.16,2.16,0,0,0,1.89,1.08M774.6,108.42V96A1.57,1.57,0,0,0,773,94.39H723.85A1.57,1.57,0,0,0,722.23,96v91.16a1.57,1.57,0,0,0,1.62,1.62H773a1.57,1.57,0,0,0,1.62-1.62V174.76a1.57,1.57,0,0,0-1.62-1.62H739.51a.77.77,0,0,1-.81-.8V149.68a.78.78,0,0,1,.81-.81H773a1.56,1.56,0,0,0,1.62-1.62V135a1.57,1.57,0,0,0-1.62-1.62H739.51a.71.71,0,0,1-.81-.8V110.84a.77.77,0,0,1,.81-.8H773a1.57,1.57,0,0,0,1.62-1.62M669.38,173.14H655.07a.77.77,0,0,1-.81-.8V149.68a.72.72,0,0,1,.81-.81h14.31c8.77,0,13.63,5,13.63,12.14s-4.86,12.13-13.63,12.13M668,110c8.5,0,13.22,4.58,13.22,11.59s-4.72,11.73-13.22,11.73h-13a.71.71,0,0,1-.81-.8V110.84a.71.71,0,0,1,.81-.8Zm19.7,29.66a22.57,22.57,0,0,0,10.8-19.82c0-14.43-10-25.49-28.34-25.49H639.41A1.56,1.56,0,0,0,637.8,96v91.16a1.56,1.56,0,0,0,1.61,1.62h32c18.9,0,28.88-11.47,28.88-26.57,0-9.84-4.72-17.26-12.55-21.44-.54-.4-.54-.81,0-1.08"/><path class="cls-1" d="M1317.24,222.16s-5-32.87-7.3-46.73l1-.21a3.05,3.05,0,0,0,2-4.53c-5.61-9.66-7.62-21.69-7.62-33.65a64.34,64.34,0,0,1,3.51-21c.13-.38.26-.75.4-1.13l.28-.81a62,62,0,0,0,5-18.43,52.39,52.39,0,0,0-4.1-25.28c-.15-.27-.3-.54-.46-.8a6.56,6.56,0,0,0,.86-8c-1.83-3.16-5.59-4.42-8.4-2.8-.29.17-1,.66-1.3.89-.51-.38-.81-.57-.81-.57s-.79-.52-1.47-.87c0,0-.26-.13-.26-.14a22.88,22.88,0,0,0-9.37-1.95,23.68,23.68,0,0,0-4.8.49,23.27,23.27,0,0,0-9.1,4.08,13.57,13.57,0,0,1-2.88.55l-3.8.18c-1.79.07-3.83,0-3.83,0a1.62,1.62,0,0,0-1.62,1.62c0,.08.59,5.3.59,5.32a4.27,4.27,0,0,0,1.79,3.25l.13.09a1.42,1.42,0,0,1,.6.62,5.87,5.87,0,0,0,1.84,2.62c.26.16.67.08.74-.21.73-2.85,2.43.22,5.66-1.53.83-.45,1.27,1.57.92,2.45l-.3.76a5.1,5.1,0,0,1-4,3.18c-1.43.21-2.25.35-2.23.55.17,1.61,0,3,1.62,4a3.94,3.94,0,0,0,.71.31c2.51.66,9.84,3.47.53,14.46a23.43,23.43,0,0,0-1.57,2,5.25,5.25,0,0,0-.51.89l-.2.39-28-10.47a6.38,6.38,0,0,1-2.44-2l-2.76-4.74a7.27,7.27,0,0,0-6.18-3.51,24.92,24.92,0,0,0-3.9,0c-.83,0-1.31.24-1.49.73a5.07,5.07,0,0,0,.61,3.51l2.4,4.41c.21.31,3.24,7.09,3.24,7.09a5.05,5.05,0,0,0,1.51,2.14L1261.29,121,1231,136.11a3.72,3.72,0,0,1-2.85.29l-2.71-.82c-5-2.21-8.69-.67-10.88,1.16l-.85.81a1.44,1.44,0,0,0,.41,2.4s4.78,2.81,5.84,3.53l7.44,4.41a5.45,5.45,0,0,0,3.83.62l29.41-5.93a101.78,101.78,0,0,0,3.54,20.62,53,53,0,0,0-15,28.19c-1.42,7.94-1,15.13,1.21,23.59-4.11.23-8.07.83-11.36,3.12-3.14,2.18-3.78,6.06-3.8,8l23,.05h1.94a3.29,3.29,0,0,0,3-2.44,15.48,15.48,0,0,0,.43-2.38,51.59,51.59,0,0,1,5.39-17.6,58.19,58.19,0,0,1,9.15-12.65,91.22,91.22,0,0,0,26,24.1,25.58,25.58,0,0,0-9.56,2.57,9.83,9.83,0,0,0-4.76,8.46h23.79a3.68,3.68,0,0,0,3.49-2.49,3.9,3.9,0,0,0,.12-.46c0-.11,0-.23,0-.34A3.14,3.14,0,0,0,1317.24,222.16Z"/><path class="cls-1" d="M85.37,91.69A8.3,8.3,0,0,1,88.83,95,9.58,9.58,0,0,1,90,99.74a8.47,8.47,0,0,1-1.15,4.37,8.18,8.18,0,0,1-3.1,3.08c-.33.2-.33.38,0,.55a8.89,8.89,0,0,1,5,8.15,9.16,9.16,0,0,1-2.8,6.9q-2.81,2.7-7.9,2.7H70a.44.44,0,0,1-.5-.5V91a.44.44,0,0,1,.5-.5H80A11.44,11.44,0,0,1,85.37,91.69Zm-12.22,2.6v11.35a.22.22,0,0,0,.25.25h6.1a7.11,7.11,0,0,0,5-1.55,6.44,6.44,0,0,0,0-8.72,7,7,0,0,0-5-1.58H73.4A.22.22,0,0,0,73.15,94.29Zm0,15.4v12a.22.22,0,0,0,.25.25h6.3a7.74,7.74,0,0,0,5.37-1.65,6.7,6.7,0,0,0,0-9.2,7.74,7.74,0,0,0-5.37-1.65H73.4A.22.22,0,0,0,73.15,109.69Z"/><path class="cls-1" d="M101.63,124.54a10.48,10.48,0,0,1-4.18-4.27,13.21,13.21,0,0,1-1.5-6.38,13.37,13.37,0,0,1,1.47-6.35,10.6,10.6,0,0,1,4.06-4.25,11.77,11.77,0,0,1,11.5,0,10.57,10.57,0,0,1,4,4.13,12,12,0,0,1,1.45,5.92,8.66,8.66,0,0,1,0,1.15.47.47,0,0,1-.5.4H100.25c-.4,0-.55.22-.45.65a8.19,8.19,0,0,0,2.53,5.25,7.69,7.69,0,0,0,5.42,1.95,8.84,8.84,0,0,0,6.55-2.9c.37-.37.66-.44.85-.2l1.66,1.8a.39.39,0,0,1,0,.65,12.89,12.89,0,0,1-4.13,2.93,12.86,12.86,0,0,1-11.05-.48Zm12.92-13.15a7.63,7.63,0,0,0-2.47-4.58,7.61,7.61,0,0,0-9.7,0,7.45,7.45,0,0,0-2.47,4.58l-.06.25c0,.2.17.3.5.3h13.76C114.5,112,114.65,111.79,114.55,111.39Z"/><path class="cls-1" d="M127.76,122.34h12c.33,0,.5.18.5.55V125a.44.44,0,0,1-.5.5H122.55c-.4,0-.6-.17-.6-.5a.8.8,0,0,1,.15-.5L134,105.74c.09-.2,0-.3-.16-.3H122.5a.44.44,0,0,1-.5-.5v-2.15a.44.44,0,0,1,.5-.5h16.6c.37,0,.55.17.55.5a1,1,0,0,1-.15.5l-12,18.75C127.45,122.24,127.51,122.34,127.76,122.34Z"/><path class="cls-1" d="M145.53,96.06a2.64,2.64,0,0,1-.83-1.92,2.55,2.55,0,0,1,.83-1.9,2.65,2.65,0,0,1,1.92-.8,2.51,2.51,0,0,1,1.85.8,2.55,2.55,0,0,1,.8,1.9,2.65,2.65,0,0,1-.8,1.92,2.47,2.47,0,0,1-1.85.83A2.6,2.6,0,0,1,145.53,96.06Zm0,28.93v-22.2a.44.44,0,0,1,.5-.5h2.65a.45.45,0,0,1,.51.5V125a.45.45,0,0,1-.51.5h-2.65A.44.44,0,0,1,145.55,125Z"/><path class="cls-1" d="M167.6,101.84c.3,0,.45.16.45.5V105c0,.3-.12.45-.35.45a3.05,3.05,0,0,1-.72-.08,3.49,3.49,0,0,0-.68-.07,6.3,6.3,0,0,0-5.5,2.95,2.14,2.14,0,0,0-.35,1.25V125a.44.44,0,0,1-.5.5H157.3a.44.44,0,0,1-.5-.5v-22.2a.44.44,0,0,1,.5-.5h2.41a.44.44,0,0,1,.49.5v1.8c0,.13,0,.22.1.25s.15,0,.26-.1a7.78,7.78,0,0,1,6.29-2.95A4.36,4.36,0,0,1,167.6,101.84Z"/><path class="cls-1" d="M185.3,125l-6-10c-.07-.17-.16-.26-.27-.28a.38.38,0,0,0-.33.18l-2.1,2.5a1.46,1.46,0,0,0-.3.9V125a.49.49,0,0,1-.15.35.55.55,0,0,1-.4.15h-2.6a.44.44,0,0,1-.5-.5V89.79a.44.44,0,0,1,.5-.5h2.6a.55.55,0,0,1,.4.15.47.47,0,0,1,.15.35v22.15c0,.2.05.31.15.32s.22-.05.35-.22l7.8-9.45a.77.77,0,0,1,.6-.3h3.45a.4.4,0,0,1,.4.2.43.43,0,0,1-.1.45l-7,8.4a.94.94,0,0,0-.22.42.66.66,0,0,0,.12.43l7.55,12.7a.69.69,0,0,1,.1.3q0,.3-.45.3h-3A.8.8,0,0,1,185.3,125Z"/><path class="cls-1" d="M195.33,124.54a7.83,7.83,0,0,1-2.83-4l-.05-.2c0-.2.11-.33.35-.4l2.4-.85.2,0c.2,0,.35.13.45.4a4.4,4.4,0,0,0,1.72,2.5,4.65,4.65,0,0,0,2.73.9,4.54,4.54,0,0,0,3.2-1,3.44,3.44,0,0,0,1.11-2.63,3.1,3.1,0,0,0-1.08-2.5,6.34,6.34,0,0,0-3-1.25l-2-.4a6.84,6.84,0,0,1-4.05-2.28,6.71,6.71,0,0,1-.55-7.67,6.51,6.51,0,0,1,2.68-2.43,8.44,8.44,0,0,1,3.87-.87,7.61,7.61,0,0,1,4.68,1.43,7.33,7.33,0,0,1,2.67,4.07l.05.2c0,.2-.14.35-.4.45l-2.35.6-.2,0c-.2,0-.33-.14-.4-.4a4.4,4.4,0,0,0-1.43-2.35,3.91,3.91,0,0,0-2.62-.85,4.09,4.09,0,0,0-2.82,1,3,3,0,0,0-1.08,2.4,3,3,0,0,0,.85,2.3,5.22,5.22,0,0,0,2.55,1.15l1.95.4a8.36,8.36,0,0,1,4.53,2.33,7,7,0,0,1-.4,9.59A8.27,8.27,0,0,1,200.3,126,8.1,8.1,0,0,1,195.33,124.54Z"/><path class="cls-1" d="M218.2,124.46a10.88,10.88,0,0,1-4.1-4.27,14,14,0,0,1,0-12.6,11,11,0,0,1,4.1-4.28,11.31,11.31,0,0,1,5.8-1.52,9.38,9.38,0,0,1,7.55,3.1.16.16,0,0,0,.2,0,.2.2,0,0,0,.1-.2v-1.95a.44.44,0,0,1,.5-.5h2.45a.44.44,0,0,1,.5.5V125a.44.44,0,0,1-.5.5h-2.45a.44.44,0,0,1-.5-.5V123c0-.1,0-.17-.1-.2s-.13,0-.2,0A10.32,10.32,0,0,1,224,126,11.22,11.22,0,0,1,218.2,124.46Zm10.55-2.77a6.28,6.28,0,0,0,2.7-2.7,2,2,0,0,0,.2-.9v-8.4a2,2,0,0,0-.2-.9,6.83,6.83,0,0,0-2.78-2.7,8.38,8.38,0,0,0-4.12-1,7.81,7.81,0,0,0-6,2.42,10.07,10.07,0,0,0,0,12.76,7.81,7.81,0,0,0,6,2.42A8.69,8.69,0,0,0,228.75,121.69Z"/><path class="cls-1" d="M246.1,125.49h-2.65a.44.44,0,0,1-.5-.5v-22.2a.44.44,0,0,1,.5-.5h2.4a.44.44,0,0,1,.5.5v1.65c0,.13,0,.22.12.25s.18,0,.28-.15a7.56,7.56,0,0,1,6.05-2.75,8.49,8.49,0,0,1,4.13.95,7.23,7.23,0,0,1,2.72,2.6c.14.23.3.23.5,0a11.27,11.27,0,0,1,3-2.62,7.14,7.14,0,0,1,3.75-.93,7.44,7.44,0,0,1,5.72,2.15,7.7,7.7,0,0,1,2,5.5V125a.44.44,0,0,1-.5.5h-2.65a.44.44,0,0,1-.5-.5V110a5,5,0,0,0-1.27-3.73,4.91,4.91,0,0,0-3.63-1.27,5.71,5.71,0,0,0-5.15,3.2,2.27,2.27,0,0,0-.3,1.2V125a.44.44,0,0,1-.5.5h-2.65a.44.44,0,0,1-.5-.5V110a5.08,5.08,0,0,0-1.25-3.73,4.82,4.82,0,0,0-3.6-1.27,5.49,5.49,0,0,0-3,.85,6.69,6.69,0,0,0-2.25,2.45,2.37,2.37,0,0,0-.25,1.1V125A.44.44,0,0,1,246.1,125.49Z"/><path class="cls-1" d="M283.2,93.24l2.7-1.45a.58.58,0,0,1,.25-.05c.23,0,.35.13.35.4V102a.22.22,0,0,0,.25.25h2.75a.44.44,0,0,1,.5.5v2.15a.44.44,0,0,1-.5.5h-2.75a.22.22,0,0,0-.25.25V125a.44.44,0,0,1-.5.5h-2.65a.45.45,0,0,1-.51-.5v-19.3c0-.17-.08-.25-.24-.25h-2.75a.44.44,0,0,1-.5-.5v-2.15a.44.44,0,0,1,.5-.5h2.75a.22.22,0,0,0,.24-.25v-8.2A.6.6,0,0,1,283.2,93.24Z"/><path class="cls-1" d="M70,155.19h2.7a.44.44,0,0,1,.5.5V186.4c0,.16.08.24.25.24H86.35a.44.44,0,0,1,.5.5v2.55a.44.44,0,0,1-.5.5H70a.44.44,0,0,1-.5-.5v-34A.44.44,0,0,1,70,155.19Z"/><path class="cls-1" d="M91.77,160.77a2.67,2.67,0,0,1-.82-1.92,2.61,2.61,0,0,1,.82-1.91,2.7,2.7,0,0,1,1.93-.79,2.54,2.54,0,0,1,1.85.79,2.63,2.63,0,0,1,.8,1.91,2.69,2.69,0,0,1-.8,1.92,2.5,2.5,0,0,1-1.85.83A2.66,2.66,0,0,1,91.77,160.77Zm0,28.92V167.5a.44.44,0,0,1,.5-.5H95a.44.44,0,0,1,.5.5v22.19a.44.44,0,0,1-.5.5H92.3A.44.44,0,0,1,91.8,189.69Z"/><path class="cls-1" d="M102.88,172.29A10.65,10.65,0,0,1,107,168a12.51,12.51,0,0,1,11.47-.25,9.44,9.44,0,0,1,3.88,3.63.57.57,0,0,1,.05.24.47.47,0,0,1-.25.45l-2.15,1.2-.25.11c-.13,0-.28-.11-.45-.31a6.38,6.38,0,0,0-2.6-2.39,7.91,7.91,0,0,0-3.7-.85,7.28,7.28,0,0,0-5.75,2.42,10.38,10.38,0,0,0,0,12.65,7.32,7.32,0,0,0,5.75,2.42,7.61,7.61,0,0,0,3.62-.85,7.1,7.1,0,0,0,2.68-2.4c.2-.3.44-.36.7-.19l2.15,1.19a.5.5,0,0,1,.2.7,8,8,0,0,1-3.72,3.66,12.57,12.57,0,0,1-5.63,1.24,11.77,11.77,0,0,1-6-1.52,10.65,10.65,0,0,1-4.12-4.27,14.17,14.17,0,0,1,0-12.61Z"/><path class="cls-1" d="M131.2,190.19h-2.65a.44.44,0,0,1-.5-.5V154.5a.44.44,0,0,1,.5-.5h2.65a.44.44,0,0,1,.5.5v14.39c0,.17,0,.26.1.28s.15,0,.25-.17a7.63,7.63,0,0,1,2.55-1.83,8,8,0,0,1,3.3-.67,7.23,7.23,0,0,1,7.8,7.64v15.55a.44.44,0,0,1-.5.5h-2.65a.44.44,0,0,1-.5-.5V174.75A5.12,5.12,0,0,0,140.8,171a4.81,4.81,0,0,0-3.6-1.28,5.69,5.69,0,0,0-3,.85,6.28,6.28,0,0,0-2.23,2.46,2.39,2.39,0,0,0-.25,1v15.59A.44.44,0,0,1,131.2,190.19Z"/><path class="cls-1" d="M154.35,157.94l2.7-1.44a.49.49,0,0,1,.25-.06c.23,0,.35.14.35.41v9.89c0,.17.08.26.25.26h2.75a.44.44,0,0,1,.5.5v2.15a.44.44,0,0,1-.5.49H157.9a.22.22,0,0,0-.25.25v19.3a.44.44,0,0,1-.5.5H154.5a.44.44,0,0,1-.5-.5v-19.3a.22.22,0,0,0-.25-.25H151c-.34,0-.5-.16-.5-.49V167.5a.44.44,0,0,1,.5-.5h2.75c.17,0,.25-.09.25-.26v-8.19A.61.61,0,0,1,154.35,157.94Z"/><path class="cls-1" d="M170.17,189.25A10.55,10.55,0,0,1,166,185a14.32,14.32,0,0,1,0-12.72,10.55,10.55,0,0,1,4-4.25,11.32,11.32,0,0,1,5.78-1.5,11.13,11.13,0,0,1,5.72,1.5,10.5,10.5,0,0,1,4,4.12A12,12,0,0,1,187,178a10.68,10.68,0,0,1-.05,1.15.47.47,0,0,1-.5.4H168.81c-.41,0-.56.22-.46.65a8.21,8.21,0,0,0,2.52,5.25,7.74,7.74,0,0,0,5.43,2,8.84,8.84,0,0,0,6.55-2.9c.37-.37.65-.44.85-.2l1.65,1.79c.24.2.24.42,0,.65a12.59,12.59,0,0,1-4.12,2.93,12.19,12.19,0,0,1-4.93,1A12.45,12.45,0,0,1,170.17,189.25ZM183.1,176.1a7.65,7.65,0,0,0-2.47-4.58,7.58,7.58,0,0,0-9.7,0,7.46,7.46,0,0,0-2.48,4.57l0,.25c0,.21.16.3.5.3h13.75C183.05,176.69,183.2,176.49,183.1,176.1Z"/><path class="cls-1" d="M195.9,190.19h-2.65a.44.44,0,0,1-.5-.5V167.5a.44.44,0,0,1,.5-.5h2.41c.33,0,.49.16.49.5v1.65a.23.23,0,0,0,.13.24q.12.06.27-.15a8.69,8.69,0,0,1,2.66-2.05,7.77,7.77,0,0,1,3.39-.69,7.23,7.23,0,0,1,7.8,7.64v15.55a.44.44,0,0,1-.5.5h-2.65a.44.44,0,0,1-.5-.5V174.75A5.12,5.12,0,0,0,205.5,171a4.8,4.8,0,0,0-3.59-1.28,5.58,5.58,0,0,0-3,.85,6.73,6.73,0,0,0-2.25,2.46,2.26,2.26,0,0,0-.25,1v15.59A.44.44,0,0,1,195.9,190.19Z"/><path class="cls-1" d="M221.53,169.29c.08,0,.19,0,.32-.14a9.93,9.93,0,0,1,7.2-2.65,11.28,11.28,0,0,1,5.81,1.52,11,11,0,0,1,4.09,4.27,14,14,0,0,1,0,12.61,11,11,0,0,1-4.09,4.27,11.28,11.28,0,0,1-5.81,1.52c-3.24,0-5.69-.94-7.4-2.85-.13-.13-.24-.19-.32-.17s-.13.11-.13.28v1.74a.44.44,0,0,1-.5.5h-2.45a.44.44,0,0,1-.5-.5V154.5a.44.44,0,0,1,.5-.5h2.65a.44.44,0,0,1,.5.5V169C221.4,169.16,221.44,169.26,221.53,169.29ZM234.48,185a10.09,10.09,0,0,0,0-12.75,7.81,7.81,0,0,0-6-2.43,8.38,8.38,0,0,0-4.1,1,7.28,7.28,0,0,0-2.8,2.7,1.85,1.85,0,0,0-.2.8v8.6a1.86,1.86,0,0,0,.2.81,7.28,7.28,0,0,0,2.8,2.7,8.38,8.38,0,0,0,4.1,1A7.81,7.81,0,0,0,234.48,185Z"/><path class="cls-1" d="M250.42,189.25a10.55,10.55,0,0,1-4.17-4.28,14.36,14.36,0,0,1,0-12.72,10.64,10.64,0,0,1,4.05-4.25,11.3,11.3,0,0,1,5.78-1.5,11.13,11.13,0,0,1,5.72,1.5,10.64,10.64,0,0,1,4,4.12,12,12,0,0,1,1.45,5.92,10.68,10.68,0,0,1-.05,1.15.47.47,0,0,1-.5.4H249.05c-.4,0-.55.22-.45.65a8.21,8.21,0,0,0,2.52,5.25,7.74,7.74,0,0,0,5.43,2,8.84,8.84,0,0,0,6.55-2.9c.36-.37.65-.44.85-.2l1.65,1.79a.39.39,0,0,1,0,.65,12.59,12.59,0,0,1-4.12,2.93,12.19,12.19,0,0,1-4.93,1A12.42,12.42,0,0,1,250.42,189.25Zm12.93-13.15a7.65,7.65,0,0,0-2.47-4.58,7.1,7.1,0,0,0-4.83-1.73,7.19,7.19,0,0,0-4.88,1.78,7.5,7.5,0,0,0-2.47,4.57l0,.25c0,.21.16.3.5.3H262.9C263.3,176.69,263.45,176.49,263.35,176.1Z"/><path class="cls-1" d="M283.8,166.54c.3,0,.45.17.45.5v2.66c0,.3-.12.44-.35.44a3.65,3.65,0,0,1-.72-.07,3.49,3.49,0,0,0-.68-.07,6.31,6.31,0,0,0-5.5,2.94,2.19,2.19,0,0,0-.35,1.25v15.5a.44.44,0,0,1-.5.5H273.5a.44.44,0,0,1-.5-.5V167.5a.44.44,0,0,1,.5-.5h2.4a.44.44,0,0,1,.5.5v1.79c0,.14,0,.22.1.25s.15,0,.25-.1a7.82,7.82,0,0,1,6.3-2.94A4.77,4.77,0,0,1,283.8,166.54Z"/><path class="cls-1" d="M292.65,199.47a11.72,11.72,0,0,1-3.9-2.77.48.48,0,0,1,0-.7l1.7-1.85a.53.53,0,0,1,.35-.21.56.56,0,0,1,.35.21,9.53,9.53,0,0,0,12.25,1.37,6,6,0,0,0,2-4.92v-3.46a.22.22,0,0,0-.15-.24c-.1,0-.22,0-.35.15a10,10,0,0,1-7.2,2.64,11.31,11.31,0,0,1-5.65-1.44,10.34,10.34,0,0,1-4-4.11,12.42,12.42,0,0,1-1.45-6.1,11.93,11.93,0,0,1,1.5-6,10.59,10.59,0,0,1,4.08-4.08,11.49,11.49,0,0,1,5.72-1.44,9.52,9.52,0,0,1,7.25,2.79c.14.14.24.19.32.15s.13-.13.13-.29V167.5a.45.45,0,0,1,.15-.35.44.44,0,0,1,.35-.15h2.45a.44.44,0,0,1,.5.5v23.39a8.67,8.67,0,0,1-3.07,7.08,12.27,12.27,0,0,1-8,2.52A12.81,12.81,0,0,1,292.65,199.47Zm9.75-14.07a7.36,7.36,0,0,0,2.75-2.55,1.66,1.66,0,0,0,.25-.91v-7.75a1.52,1.52,0,0,0-.25-.9,7.36,7.36,0,0,0-2.75-2.55,8.41,8.41,0,0,0-4-1,7.77,7.77,0,0,0-5.83,2.3,9.16,9.16,0,0,0,0,12,7.77,7.77,0,0,0,5.83,2.29A8.41,8.41,0,0,0,302.4,185.4Z"/></svg>