<?xml version="1.0" standalone="no"?>
<!DOCTYPE svg PUBLIC "-//W3C//DTD SVG 20010904//EN"
 "http://www.w3.org/TR/2001/REC-SVG-20010904/DTD/svg10.dtd">
<svg version="1.0" xmlns="http://www.w3.org/2000/svg"
 width="1200.000000pt" height="1200.000000pt" viewBox="0 0 1200.000000 1200.000000"
 preserveAspectRatio="xMidYMid meet">
<metadata>
Created by potrace 1.14, written by Peter Selinger 2001-2017
</metadata>
<g transform="translate(0.000000,1200.000000) scale(0.100000,-0.100000)"
fill="#000000" stroke="none">
<path d="M5698 11995 c-2 -2 -50 -6 -108 -9 -58 -4 -117 -8 -130 -10 -14 -3
-59 -8 -100 -12 -76 -7 -87 -8 -175 -19 -42 -5 -115 -17 -310 -51 -31 -6 -155
-32 -190 -40 -11 -3 -31 -7 -45 -10 -154 -30 -508 -137 -740 -225 -145 -54
-197 -75 -295 -118 -22 -10 -69 -31 -105 -47 -96 -42 -372 -184 -472 -243 -48
-28 -91 -51 -97 -51 -6 0 -11 -4 -11 -10 0 -5 -5 -10 -12 -10 -6 0 -26 -11
-44 -25 -18 -14 -36 -25 -39 -25 -18 0 -429 -287 -521 -364 -10 -8 -60 -48
-109 -88 -50 -40 -108 -89 -130 -108 -21 -19 -68 -61 -104 -94 -88 -78 -370
-364 -451 -455 -404 -461 -732 -966 -972 -1501 -121 -268 -202 -483 -279 -737
-66 -221 -141 -531 -165 -688 -3 -16 -9 -52 -14 -80 -5 -27 -12 -68 -15 -90
-2 -22 -6 -49 -9 -60 -4 -20 -10 -77 -22 -192 -3 -32 -7 -68 -9 -81 -12 -74
-20 -295 -19 -552 0 -313 7 -466 30 -655 4 -27 8 -63 10 -80 4 -31 12 -96 20
-155 5 -36 8 -49 18 -110 3 -19 8 -46 10 -60 10 -54 47 -237 56 -270 5 -19 12
-50 15 -69 3 -19 8 -37 10 -41 2 -3 6 -17 9 -31 20 -86 27 -115 56 -208 17
-57 33 -111 35 -120 7 -30 87 -256 140 -392 98 -251 255 -580 372 -777 23 -41
43 -75 43 -77 0 -9 159 -257 234 -365 69 -100 212 -293 241 -326 5 -7 26 -31
45 -55 162 -201 502 -556 665 -694 39 -33 77 -67 85 -75 8 -8 38 -33 65 -55
72 -57 86 -69 99 -80 106 -94 520 -378 692 -476 19 -10 51 -29 72 -40 183
-105 353 -191 557 -281 105 -47 412 -168 425 -168 5 0 21 -5 37 -12 15 -6 33
-12 38 -14 6 -2 74 -24 153 -48 78 -25 153 -48 165 -50 29 -6 42 -10 162 -41
106 -27 344 -77 460 -96 79 -13 78 -12 160 -23 57 -7 80 -10 157 -20 37 -5
147 -15 258 -23 41 -3 212 -6 380 -7 374 -1 510 7 795 45 83 11 161 22 175 24
25 3 122 20 170 30 14 3 39 8 55 11 17 3 89 18 160 35 715 164 1386 453 2000
862 134 89 342 241 394 288 9 8 26 22 38 30 18 13 99 79 127 104 6 6 50 44 96
84 186 164 483 472 641 666 533 655 908 1368 1135 2159 25 88 47 167 49 175 2
9 8 36 15 61 7 25 13 52 15 60 2 8 17 83 34 166 17 83 33 168 36 190 3 21 11
65 16 97 10 60 13 82 23 177 4 30 9 73 12 95 19 133 29 344 29 630 0 305 -7
461 -29 640 -3 22 -8 67 -12 100 -3 33 -8 67 -10 77 -1 9 -5 38 -9 65 -8 57
-11 76 -19 123 -13 75 -15 87 -26 140 -6 30 -13 67 -15 82 -3 16 -12 58 -21
95 -9 38 -17 76 -20 86 -2 10 -6 27 -9 37 -3 10 -8 27 -10 37 -9 39 -54 201
-70 252 -9 30 -18 62 -20 70 -7 31 -86 253 -139 389 -87 224 -201 470 -315
680 -109 200 -299 499 -434 682 -64 87 -204 268 -217 280 -3 3 -30 34 -60 70
-188 221 -529 556 -735 723 -11 9 -40 32 -65 53 -72 59 -227 175 -335 250
-103 72 -372 244 -380 244 -3 0 -22 11 -43 24 -61 40 -177 102 -347 185 -388
190 -706 309 -1110 418 -153 41 -164 44 -190 48 -11 1 -38 8 -60 13 -42 11
-76 18 -135 28 -19 3 -51 9 -70 14 -30 7 -68 14 -205 35 -19 3 -160 21 -235
30 -19 2 -67 7 -105 10 -39 4 -90 9 -115 11 -48 6 -727 14 -732 9z"/>
</g>
</svg>
